<svg width="12" height="11" viewBox="0 0 12 11" fill="none" xmlns="http://www.w3.org/2000/svg">
<g clip-path="url(#clip0_5_11)">
<path d="M11.002 3.5729L7.95826 3.12915L6.59785 0.370822C6.3541 -0.120844 5.64784 -0.127094 5.40201 0.370822L4.04159 3.12915L0.997845 3.5729C0.452012 3.65207 0.233262 4.32498 0.629095 4.7104L2.83118 6.85623L2.31035 9.88747C2.2166 10.4354 2.79368 10.8458 3.27701 10.5896L5.99993 9.15831L8.72285 10.5896C9.20618 10.8437 9.78326 10.4354 9.68951 9.88747L9.16868 6.85623L11.3708 4.7104C11.7666 4.32498 11.5478 3.65207 11.002 3.5729ZM8.09576 6.50623L8.58951 9.38956L5.99993 8.02914L3.41034 9.38956L3.90409 6.50623L1.80826 4.46457L4.70409 4.04373L5.99993 1.41874L7.29576 4.04373L10.1916 4.46457L8.09576 6.50623Z" fill="white"/>
</g>
<defs>
<clipPath id="clip0_5_11">
<rect width="12" height="10.6667" fill="white"/>
</clipPath>
</defs>
</svg>
